<?xml version="1.0" encoding="UTF-8"?>
<!DOCTYPE svg PUBLIC "-//W3C//DTD SVG 1.1//EN" "http://www.w3.org/Graphics/SVG/1.1/DTD/svg11.dtd">
<!-- Creator: CorelDRAW 2020 (64 Bit) -->
<svg xmlns="http://www.w3.org/2000/svg" xml:space="preserve" width="210mm" height="210mm" version="1.1" style="shape-rendering:geometricPrecision; text-rendering:geometricPrecision; image-rendering:optimizeQuality; fill-rule:evenodd; clip-rule:evenodd"
viewBox="0 0 21000 21000"
 xmlns:xlink="http://www.w3.org/1999/xlink"
 xmlns:xodm="http://www.corel.com/coreldraw/odm/2003">
 <defs>
  <style type="text/css">
   <![CDATA[
    .fil0 {fill:#FF6600}
   ]]>
  </style>
 </defs>
 <g id="Camada_x0020_1">
  <metadata id="CorelCorpID_0Corel-Layer"/>
  <path class="fil0" d="M1153.06 3689.74c37.8,71.94 -4.48,9.99 52.02,71.6l6808.94 6001.24c168.89,147.82 409.93,324.77 571.69,476.7 202.9,190.58 357.26,346.8 570.87,515.79 536.83,424.71 1155.9,1354.29 2060.96,531.71 122.9,-111.7 172.13,-157.27 290.36,-254.5 116.92,-96.15 162.41,-165.76 284.84,-258.19l2292.6 -2020.03c303.73,-301.03 1270.13,-1076.17 1715.28,-1507.99 406.18,-394.01 1278.75,-1066.71 1741.3,-1524.11l689.26 -608.71c64.22,-62.34 94.09,-78.69 161.38,-133.07l572.61 -515.33c132.19,-108.32 158.02,-112.39 292.93,-250.78l492.31 -431.53c84.94,-87.48 23.98,-1.72 86.04,-112.41 -851.39,-241.56 -3525.22,-142.46 -4576.86,-142.46 -3963.49,0 -7926.97,0 -11890.46,0 -553.18,0 -1806.52,-90.77 -2216.07,162.07zm12200.63 6866.33c88.06,138.23 101.03,109.56 225.06,215.63l3790.19 3328.22c87.22,70.44 129.08,130.5 214.54,202.42l1567.12 1364c170.78,162.29 1211.72,1097.6 1356.49,1165.68 266.67,-535.24 237.55,-696.15 237.49,-1377.42l0 -8164.23c0,-788.9 146.43,-2470.58 -251.52,-3002.8 -172.65,88.1 -872.98,765.38 -1123.43,958.47l-1116.19 977.93c-178.3,165.06 -261.82,227.01 -439.7,397.22l-4460.05 3934.88zm-12882.07 6273.53c163.14,-87.64 307.96,-249.35 464.35,-375.78l1783.68 -1565.28c174.78,-159.94 261.26,-230.21 437.72,-398.46l4236.5 -3719.55c102.88,-81.84 145.18,-88.38 227.86,-214.46 -108.47,-164.72 -521.57,-458.79 -655.79,-582.26 -94.8,-87.21 -111.71,-122.66 -215.51,-203.76l-3337.12 -2942.1c-89.66,-79.14 -146.46,-105.68 -231.56,-189.55l-2222.33 -1962.44c-166.88,-131.57 -309.61,-295.2 -487.05,-395.46 -396.02,690.64 -243.76,2092.11 -243.76,3009.87l0 6531.39c0,864.66 -146.38,2380.31 243.01,3007.84zm680.79 592.79c272.22,148.06 499.38,162.21 835.08,162.21l17040.2 -0.1c328.26,-0.17 526.35,-30.42 792.85,-162.11 -84.55,-166.72 -705.8,-631.65 -876.41,-796.9l-1552.09 -1376.96c-94.34,-76.1 -146.56,-108.24 -229.13,-191.05l-4457.26 -3912.06c-578.1,278.53 -1450.17,1827.05 -2956.68,1151.47 -505.75,-226.81 -1200.82,-1026.42 -1481.31,-1151.56l-5352.54 4692.18c-89.21,71.79 -129.39,124.22 -218.1,201.01l-1494.26 1310.52c-54.98,62.82 -15.47,2.02 -50.35,73.35z"/>
 </g>
</svg>
