<?xml version="1.0" encoding="UTF-8"?>
<!DOCTYPE svg PUBLIC "-//W3C//DTD SVG 1.1//EN" "http://www.w3.org/Graphics/SVG/1.1/DTD/svg11.dtd">
<!-- Creator: CorelDRAW 2020 (64 Bit) -->
<svg xmlns="http://www.w3.org/2000/svg" xml:space="preserve" width="210mm" height="210mm" version="1.1" style="shape-rendering:geometricPrecision; text-rendering:geometricPrecision; image-rendering:optimizeQuality; fill-rule:evenodd; clip-rule:evenodd"
viewBox="0 0 21000 21000"
 xmlns:xlink="http://www.w3.org/1999/xlink"
 xmlns:xodm="http://www.corel.com/coreldraw/odm/2003">
 <defs>
  <style type="text/css">
   <![CDATA[
    .fil0 {fill:#FF6600}
   ]]>
  </style>
 </defs>
 <g id="Camada_x0020_1">
  <metadata id="CorelCorpID_0Corel-Layer"/>
  <path class="fil0" d="M1053.85 9452.06l-182.12 1685.12c0,1716.62 883.21,4388.77 1907.82,5781.43 1760.05,2392.31 3669.3,2862.26 3962.3,3181.9l763.02 257.46c2450.17,556.25 3366.35,593.53 5835.69,-0.27 3597.29,-1273.87 6024.53,-4207.81 6508.25,-7994.28 293.78,-2299.7 -180.27,-3841.84 -1154.24,-5793.02 -666.27,-1173.08 -3818.77,-5266.54 -5153.2,-2729.94 -627.54,1192.74 360.92,1842.71 940.45,2268.11 2113.36,1551.27 2581.97,3589.07 2457.88,6003.44 -505.65,5055.95 -7874.37,7912.75 -11478.33,3462.41 -931.19,-1149.94 -1623.12,-2543.37 -1621.73,-4062.82 0.14,-174.92 -3.16,-320.55 4.75,-501.99 -14.89,-1686.52 1089.7,-3978.5 2471.72,-4898.37 506.17,-336.89 985.41,-549.93 1131.56,-1255.76 138.38,-668.23 -219.54,-1451.02 -858.1,-1710.23 -2595.56,-377.18 -5030.64,4472.15 -5535.72,6306.81zm7895.29 -7196.47l-0.96 7270.28c0.75,746.63 -108.45,2242.17 1299.9,2392.99 623.54,66.77 1070.26,-238.45 1314.46,-560.2 437.78,-576.81 315.35,-1533.67 317.89,-2426.28l0 -6676.79c0,-573.56 41.1,-1096.28 -277.81,-1503.87 -748.58,-956.75 -2652.34,-1182.58 -2653.48,1503.87z"/>
 </g>
</svg>
