<?xml version="1.0" encoding="UTF-8"?>
<!DOCTYPE svg PUBLIC "-//W3C//DTD SVG 1.1//EN" "http://www.w3.org/Graphics/SVG/1.1/DTD/svg11.dtd">
<!-- Creator: CorelDRAW 2020 (64 Bit) -->
<svg xmlns="http://www.w3.org/2000/svg" xml:space="preserve" width="210mm" height="210mm" version="1.1" style="shape-rendering:geometricPrecision; text-rendering:geometricPrecision; image-rendering:optimizeQuality; fill-rule:evenodd; clip-rule:evenodd"
viewBox="0 0 21000 21000"
 xmlns:xlink="http://www.w3.org/1999/xlink"
 xmlns:xodm="http://www.corel.com/coreldraw/odm/2003">
 <defs>
  <style type="text/css">
   <![CDATA[
    .fil0 {fill:#FF6600}
   ]]>
  </style>
 </defs>
 <g id="Camada_x0020_1">
  <metadata id="CorelCorpID_0Corel-Layer"/>
  <path class="fil0" d="M7972.63 18173.92c-1440.17,174.41 -2571.21,193.9 -3251.61,-789.5 -198.91,-287.49 -609.29,-1474.5 -1259.76,-1874.78 -959.82,-590.66 -307.9,-797.14 312.71,-650.2 261.88,61.99 470.44,195.14 640.08,322.5 708.12,531.71 801.68,1511.23 1996.11,1766.88 722.91,154.72 1037.58,-66.62 1613.46,-213.61 66.85,-560.52 301.21,-1113.92 634.48,-1338.01l-344.84 -93.22c-1677.81,-196.62 -3164.34,-932.32 -3861.91,-2505.57 -800.46,-1805.26 -569.37,-4130.09 593.41,-5272.33 -242.32,-928.93 -319.35,-1914.47 113.29,-2767.75 992.22,-50.43 1836.18,457.31 2502,856.96 265.3,159.24 240.01,234.69 604.72,135.98 218.5,-59.15 464.53,-103.73 691.01,-141 1170.79,-192.67 2667.71,-184.82 3817.89,124.19 390.98,105.04 361.94,95.3 646.91,-99.61 518.66,-354.71 1688.5,-980.76 2508.54,-871.15 251.71,290.34 365.5,1311.1 339.71,1751.13 -21.64,369.24 -85.57,558.93 -168.63,882.67 -97.42,379.68 1399.62,926.78 929.38,4109.56 -259.24,1754.69 -1201.76,2917.86 -2846.07,3474.44 -280.47,94.93 -531.47,159.23 -822.46,221.74 -521.87,112.12 -775.84,82.67 -918.84,195.87 980.55,652.38 641.56,3261.03 662.53,4591.74 16.03,1017.63 1174.31,421.3 1688.5,198.46 1225.83,-531.24 1855.98,-1087.63 2747.7,-1851.88 1469.11,-1259.06 2677.37,-3454.85 3082.95,-5497.01 663.61,-3341.31 -445.22,-6531.8 -2164.86,-8607.89 -60.99,-73.62 -95.55,-95.42 -157.87,-174.94 -262.31,-334.74 -1133.55,-1146.65 -1533.92,-1437.06 -1372.14,-995.37 -2750.37,-1688.95 -4629,-1980.99 -3359.3,-522.2 -6350.78,689.71 -8280.3,2339.45l-523.32 481.61c-3575.11,3358.49 -4166.94,9186.38 -1133.69,13391.62 242.51,336.21 448.83,608.02 739.58,891.15 560.28,545.57 465.63,540.27 1208.39,1135.5 575.56,461.25 2849.85,1943.28 3542.99,1660.73 367.46,-149.79 289.3,-573.22 285.33,-1010.59 -4.06,-446.74 -21.27,-910.23 -4.59,-1355.09z"/>
 </g>
</svg>
