<?xml version="1.0" encoding="UTF-8"?>
<!DOCTYPE svg PUBLIC "-//W3C//DTD SVG 1.1//EN" "http://www.w3.org/Graphics/SVG/1.1/DTD/svg11.dtd">
<!-- Creator: CorelDRAW 2020 (64 Bit) -->
<svg xmlns="http://www.w3.org/2000/svg" xml:space="preserve" width="91.44mm" height="76.1998mm" version="1.1" style="shape-rendering:geometricPrecision; text-rendering:geometricPrecision; image-rendering:optimizeQuality; fill-rule:evenodd; clip-rule:evenodd"
viewBox="0 0 9144 7619.98"
 xmlns:xlink="http://www.w3.org/1999/xlink"
 xmlns:xodm="http://www.corel.com/coreldraw/odm/2003">
 <defs>
  <style type="text/css">
   <![CDATA[
    .fil0 {fill:url(#id1);fill-rule:nonzero}
   ]]>
  </style>
    <clipPath id="id0">
     <rect x="810.45" y="-1433.79" width="7678.38" height="7678.39"/>
    </clipPath>
  <linearGradient id="id1" gradientUnits="userSpaceOnUse" x1="4649.64" y1="7360.4" x2="4649.64" y2="5814.14">
   <stop offset="0" style="stop-opacity:1; stop-color:#B54706"/>
   <stop offset="0.470588" style="stop-opacity:1; stop-color:#FF680F"/>
   <stop offset="1" style="stop-opacity:1; stop-color:#B54706"/>
  </linearGradient>
 </defs>
 <g id="Camada_x0020_1">
  <metadata id="CorelCorpID_0Corel-Layer"/>
  <g id="_1693020324528">
   <path class="fil0" d="M1499 7360.4l-514.69 -1295.11 -396.41 1295.11 -259.47 0 496.04 -1546.26 309.28 0 620.57 1546.26 -255.32 0zm1737.23 0l-1384.39 0c-1.38,-60.87 2.79,-114.49 12.49,-160.86 9.65,-46.34 26.25,-94.43 49.77,-144.23 23.54,-44.29 49.48,-84.07 77.87,-119.36 28.36,-35.28 60.53,-69.51 96.51,-102.72 24.9,-24.92 60.19,-60.53 105.84,-106.9 45.67,-46.34 95.47,-97.54 149.41,-153.58 53.99,-56.04 108.99,-113.11 165.01,-171.23 56.04,-58.11 106.89,-111.38 152.54,-159.82 45.68,-48.42 83.41,-88.22 113.12,-119.33 29.78,-31.14 45.35,-48.1 46.73,-50.86l-782.49 0 0 -253.2 1154.01 0 0 246.98 -979.65 1021.14 1023.23 4.17 0 269.8zm1259.82 -840.58c11.11,2.76 21.45,6.56 31.17,11.42 9.65,4.84 19.37,10.02 29.02,15.55 19.37,9.7 38.05,23.54 56.06,41.53 17.99,17.99 31.81,38.74 41.48,62.26 9.7,23.51 14.56,52.58 14.56,87.18l0 622.64 -246.98 0 0 -572.85c0,-22.13 -8.34,-41.5 -24.9,-58.11 -15.22,-13.82 -33.21,-26.28 -53.97,-37.36 -22.13,-12.43 -48.43,-22.82 -78.88,-31.11l-612.26 0 0 699.43 -230.4 0 0 -1542.09 788.71 0c53.95,2.76 101.69,11.75 143.2,26.97 38.72,17.99 71.26,42.2 97.52,72.65 30.47,30.42 45.67,75.41 45.67,134.9l0 466.99zm-844.7 -464.92l0 363.23 620.57 0 0 -363.23 -620.57 0zm2318.3 1305.5l-514.72 -1295.11 -396.41 1295.11 -259.42 0 496.03 -1546.26 309.26 0 620.58 1546.26 -255.32 0zm1633.46 0l-1201.76 0 0 -1212.1c0,-80.24 13.18,-141.81 39.46,-184.72 29.04,-42.89 60.2,-76.1 93.37,-99.62 37.36,-23.51 81.65,-38.74 132.88,-45.65l936.05 0 0 238.67 -956.83 0 0 413.02 855.12 2.07 0 232.47 -855.12 0 0 402.64 956.83 0 0 253.22zm1367.73 0l-1079.24 0 0 -1542.09 244.88 0 0 1297.18 834.36 0 0 244.91z"/>
   <g style="clip-path:url(#id0)">
    <image x="810.45" y="-1433.79" width="7678.38" height="7678.39" xlink:href="LOGO_Images\LOGO_ImgID1.png"/>
   </g>
  </g>
 </g>
</svg>
