<?xml version="1.0" encoding="UTF-8"?>
<!DOCTYPE svg PUBLIC "-//W3C//DTD SVG 1.1//EN" "http://www.w3.org/Graphics/SVG/1.1/DTD/svg11.dtd">
<!-- Creator: CorelDRAW 2020 (64 Bit) -->
<svg xmlns="http://www.w3.org/2000/svg" xml:space="preserve" width="210mm" height="210mm" version="1.1" style="shape-rendering:geometricPrecision; text-rendering:geometricPrecision; image-rendering:optimizeQuality; fill-rule:evenodd; clip-rule:evenodd"
viewBox="0 0 21000 21000"
 xmlns:xlink="http://www.w3.org/1999/xlink"
 xmlns:xodm="http://www.corel.com/coreldraw/odm/2003">
 <defs>
  <style type="text/css">
   <![CDATA[
    .fil0 {fill:#FF6600}
   ]]>
  </style>
 </defs>
 <g id="Camada_x0020_1">
  <metadata id="CorelCorpID_0Corel-Layer"/>
  <path class="fil0" d="M280.72 20946.04c479.46,-67.68 3549.03,-920.58 4336.08,-1117.72 1299.22,-325.43 966.9,-259.28 2093.66,208.08 2930.8,1215.65 6155.09,952.02 8909.17,-531.61 1793.14,-965.97 3033.77,-2387.76 4029.59,-4144.22 634.52,-1119.2 1123.91,-2814.99 1190.74,-4287.4 161.32,-3555 -1347.01,-6203.32 -3035.5,-7877.08 -1598.04,-1584.08 -4564.16,-3230.79 -7944.03,-2903.55 -3611.14,349.62 -6634.67,2268.43 -8279.22,5330.86 -295.33,549.96 -634.34,1294.44 -805.57,1936.26 -616.4,2310.63 -606.72,4669.39 357.29,6930.84 444.89,1043.65 650.91,854.89 319.42,2126.7 -372.96,1430.84 -827.9,2883.54 -1171.63,4328.84zm6486.28 -15113.13c-1016.35,317.85 -1817.15,2189.37 -1030.41,3843.56 462.86,973.19 1534.75,2407.97 2359.8,3175.72l722.65 648.31c231.5,205.63 506.16,383.87 790.39,580.05 1602.35,1106.07 4689.82,2224.11 5873.57,278.81 190.91,-313.74 298.9,-670.44 294.13,-1075.77 -6.2,-525.58 -944.69,-801.25 -1623.18,-1111.76 -1267.44,-580.04 -826.14,-529.89 -1959.63,796.18 -114.61,134.1 -258.74,194.37 -500.26,136.57 -742.78,-177.79 -2021.03,-1097.12 -2528.4,-1638.47 -247.01,-263.55 -1083.46,-1253.64 -1130.05,-1616.86 -70.22,-547.51 1099.19,-890.98 689.47,-1892.06 -142.01,-347.02 -676.89,-1698.91 -826.31,-1918.51 -177.26,-260.47 -778.97,-316.1 -1131.77,-205.77zm-4089.79 12745.15c608.35,-157.09 1207.68,-305.88 1805.63,-462.87 514.63,-135.12 1218.26,-461.68 1729.92,-215.5 1102.62,530.54 1928.1,991.1 3340.75,1147.22 1346.95,148.85 2762.82,-10.46 3946.26,-451.21 550.21,-204.93 1036.67,-426.76 1505.97,-707.76 263.33,-157.67 1090.36,-744.73 1302.53,-964.87 376.5,-390.62 706.41,-671.5 1066.34,-1148.52 2701.54,-3580.45 2259.74,-8385.65 -736.23,-11359.56 -1613.47,-1601.57 -4077.01,-2582.14 -6446.54,-2445.71 -1818.44,104.72 -3545.25,752.06 -4868.37,1807.58l-1168.08 1098.19c-321.22,398.14 -668.58,844.91 -921.34,1293.18 -1257.97,2231.12 -1614.85,4727.5 -714.01,7198.95 222.05,609.19 483.09,1009.32 723.64,1544.02 324.94,722.29 135.23,1132.6 -85.79,1832.2 -177.79,562.76 -326.99,1242.21 -480.68,1834.66z"/>
 </g>
</svg>
